<svg width="136" height="56" viewBox="0 0 136 56" fill="none" xmlns="http://www.w3.org/2000/svg">
<g clip-path="url(#clip0_158_118)">
<path d="M24.85 42.4875H7.31205L0 36.2772L11.237 7.61035H21.0244L31.9387 36.2772L24.85 42.4875ZM22.5599 33.8691L16.0261 17.05L9.37884 33.8691H22.5599Z" fill="#272834" fill-opacity="0.23"/>
<path d="M24.85 42.4875H7.31205L0 36.2772L11.237 7.61035H21.0244L31.9387 36.2772L24.85 42.4875ZM22.5599 33.8691L16.0261 17.05L9.37884 33.8691H22.5599Z" fill="url(#paint0_linear_158_118)"/>
<path d="M46.2558 14.9238C49.7667 14.9238 52.5655 15.8015 54.6522 17.557C56.772 19.3124 58.0968 21.6309 58.6268 24.5125H50.6776C50.4457 23.3864 49.9158 22.5087 49.0877 21.8794C48.2928 21.2169 47.2826 20.8857 46.0571 20.8857C45.0966 20.8857 44.3679 21.101 43.8711 21.5316C43.3742 21.929 43.1258 22.5087 43.1258 23.2705C43.1258 24.1316 43.573 24.7775 44.4673 25.2081C45.3947 25.6387 46.8355 26.0692 48.7896 26.4998C50.9094 26.9966 52.6483 27.51 54.0063 28.04C55.3643 28.5368 56.5401 29.3648 57.5338 30.5241C58.5274 31.6834 59.0242 33.2401 59.0242 35.1943C59.0242 36.7841 58.5937 38.1918 57.7325 39.4173C56.8713 40.6428 55.6293 41.6033 54.0063 42.2989C52.3833 42.9944 50.4623 43.3422 48.2431 43.3422C44.5004 43.3422 41.5029 42.5142 39.2506 40.8581C36.9983 39.202 35.6238 36.8338 35.127 33.7535H43.3246C43.4571 34.9459 43.9539 35.8567 44.815 36.486C45.7093 37.1153 46.852 37.43 48.2431 37.43C49.2037 37.43 49.9323 37.2147 50.4292 36.7841C50.926 36.3204 51.1744 35.7242 51.1744 34.9955C51.1744 34.035 50.7107 33.356 49.7833 32.9586C48.889 32.528 47.4151 32.0808 45.3615 31.6171C43.308 31.1865 41.6188 30.7228 40.2939 30.226C38.9691 29.7292 37.8264 28.9343 36.8658 27.8413C35.9053 26.7151 35.4251 25.1915 35.4251 23.2705C35.4251 20.7863 36.369 18.7825 38.257 17.2589C40.1449 15.7022 42.8112 14.9238 46.2558 14.9238Z" fill="white"/>
<path d="M81.5149 14.9238C83.8003 14.9238 85.8373 15.5034 87.6258 16.6627C89.4475 17.7888 90.8718 19.4283 91.8985 21.5813C92.9584 23.701 93.4884 26.2183 93.4884 29.133C93.4884 32.0146 92.9584 34.5318 91.8985 36.6847C90.8718 38.8376 89.4475 40.4937 87.6258 41.653C85.8373 42.7791 83.8003 43.3422 81.5149 43.3422C79.3951 43.3422 77.5734 42.8619 76.0498 41.9014C74.5262 40.9409 73.4166 39.6326 72.7211 37.9765V56.21H64.2254V15.2716H72.7211V20.2895C73.4166 18.6334 74.5262 17.3251 76.0498 16.3646C77.5734 15.4041 79.3951 14.9238 81.5149 14.9238ZM78.7823 22.3762C76.9938 22.3762 75.5199 22.9889 74.3606 24.2144C73.2345 25.4068 72.6714 27.0463 72.6714 29.133C72.6714 31.1865 73.2345 32.8261 74.3606 34.0516C75.5199 35.2771 76.9938 35.8898 78.7823 35.8898C80.604 35.8898 82.0614 35.2936 83.1544 34.1012C84.2805 32.9089 84.8436 31.2528 84.8436 29.133C84.8436 27.0132 84.2805 25.3571 83.1544 24.1647C82.0614 22.9724 80.604 22.3762 78.7823 22.3762Z" fill="white"/>
<path d="M97.5988 7.47143C97.5988 6.17968 98.0625 5.11979 98.9899 4.29175C99.9173 3.43058 101.143 3 102.666 3C104.19 3 105.416 3.43058 106.343 4.29175C107.27 5.11979 107.734 6.17968 107.734 7.47143C107.734 8.73005 107.27 9.78994 106.343 10.6511C105.416 11.4791 104.19 11.8932 102.666 11.8932C101.143 11.8932 99.9173 11.4791 98.9899 10.6511C98.0625 9.78994 97.5988 8.73005 97.5988 7.47143ZM106.889 15.2716V42.9944H98.3937V15.2716H106.889Z" fill="white"/>
<path d="M123.337 14.9238C126.848 14.9238 129.647 15.8015 131.734 17.557C133.854 19.3124 135.178 21.6309 135.708 24.5125H127.759C127.527 23.3864 126.997 22.5087 126.169 21.8794C125.374 21.2169 124.364 20.8857 123.139 20.8857C122.178 20.8857 121.45 21.101 120.953 21.5316C120.456 21.929 120.207 22.5087 120.207 23.2705C120.207 24.1316 120.655 24.7775 121.549 25.2081C122.476 25.6387 123.917 26.0692 125.871 26.4998C127.991 26.9966 129.73 27.51 131.088 28.04C132.446 28.5368 133.622 29.3648 134.615 30.5241C135.609 31.6834 136.106 33.2401 136.106 35.1943C136.106 36.7841 135.675 38.1918 134.814 39.4173C133.953 40.6428 132.711 41.6033 131.088 42.2989C129.465 42.9944 127.544 43.3422 125.325 43.3422C121.582 43.3422 118.584 42.5142 116.332 40.8581C114.08 39.202 112.705 36.8338 112.209 33.7535H120.406C120.539 34.9459 121.035 35.8567 121.897 36.486C122.791 37.1153 123.934 37.43 125.325 37.43C126.285 37.43 127.014 37.2147 127.511 36.7841C128.008 36.3204 128.256 35.7242 128.256 34.9955C128.256 34.035 127.792 33.356 126.865 32.9586C125.971 32.528 124.497 32.0808 122.443 31.6171C120.39 31.1865 118.7 30.7228 117.376 30.226C116.051 29.7292 114.908 28.9343 113.947 27.8413C112.987 26.7151 112.507 25.1915 112.507 23.2705C112.507 20.7863 113.451 18.7825 115.339 17.2589C117.226 15.7022 119.893 14.9238 123.337 14.9238Z" fill="white"/>
</g>
<defs>
<linearGradient id="paint0_linear_158_118" x1="15.9694" y1="7.61035" x2="15.9694" y2="42.4875" gradientUnits="userSpaceOnUse">
<stop stop-color="#919191"/>
<stop offset="1" stop-color="white"/>
</linearGradient>
<clipPath id="clip0_158_118">
<rect width="136" height="56" fill="white"/>
</clipPath>
</defs>
</svg>
